ffmpeg started on 2025-06-27 at 12:11:29
Report written to "D:\Convert\FFMetrics\reports\psnr_report-6.txt"
Log level: 32
Command line:
ffmpeg -hide_banner -nostdin -i "G:\\\xc0\xed\xe8\xec\xe5\\[\xd2\xee\xef]\\\xcf\xee\xe2\xe5\xeb\xe8\xf2\xe5\xeb\xfc\\\xd2\xc2-3\\Special\\[Ohys-Raws] Overlord III - Sp.13 (BDRip-720p)_HEVC.mkv" -i "G:\\\xc0\xed\xe8\xec\xe5\\[\xd2\xee\xef]\\\xcf\xee\xe2\xe5\xeb\xe8\xf2\xe5\xeb\xfc\\\xd2\xc2-3\\Special\\[Ohys-Raws] Overlord III - Sp.13 (BDRip-720p).mkv" -lavfi "[0:v]settb=AVTB,setpts=PTS-STARTPTS,format=pix_fmts=yuv420p10,fps=24000/1001,scale=1280:720:flags=bicubic[main];[1:v]settb=AVTB,setpts=PTS-STARTPTS,format=pix_fmts=yuv420p,fps=24000/1001,scale=1280:720:flags=bicubic[ref];[main][ref]psnr=eof_action=endall:stats_file='D\\:/Convert/FFMetrics/logs/psnr_logfile-6.txt'" -f null -
Input #0, matroska,webm, from 'G:\Аниме\[Топ]\Повелитель\ТВ-3\Special\[Ohys-Raws] Overlord III - Sp.13 (BDRip-720p)_HEVC.mkv':
  Metadata:
    ENCODER         : Lavf61.7.100
  Duration: 00:01:31.09, start: -0.014000, bitrate: 543 kb/s
  Stream #0:0(jpn): Video: hevc (Main 10), yuv420p10le(tv, bt709, progressive), 1280x720 [SAR 1:1 DAR 16:9], 23.98 fps, 23.98 tbr, 1k tbn (default)
      Metadata:
        ENCODER         : Lavc61.19.100 libx265
        BPS             : 342073
        DURATION        : 00:01:31.090708333
        NUMBER_OF_FRAMES: 2184
        NUMBER_OF_BYTES : 3894930
        _STATISTICS_WRITING_APP: mkvpropedit v66.0.0 ('Josie') 64-bit
        _STATISTICS_WRITING_DATE_UTC: 2025-06-27 08:36:01
        _STATISTICS_TAGS: BPS DURATION NUMBER_OF_FRAMES NUMBER_OF_BYTES
  Stream #0:1(jpn): Audio: aac (LC), 48000 Hz, stereo, fltp (default)
      Metadata:
        ENCODER         : Lavc61.19.100 aac
        BPS             : 197517
        DURATION        : 00:01:31.029000000
        NUMBER_OF_FRAMES: 4268
        NUMBER_OF_BYTES : 2247480
        _STATISTICS_WRITING_APP: mkvpropedit v66.0.0 ('Josie') 64-bit
        _STATISTICS_WRITING_DATE_UTC: 2025-06-27 08:36:01
        _STATISTICS_TAGS: BPS DURATION NUMBER_OF_FRAMES NUMBER_OF_BYTES
Input #1, matroska,webm, from 'G:\Аниме\[Топ]\Повелитель\ТВ-3\Special\[Ohys-Raws] Overlord III - Sp.13 (BDRip-720p).mkv':
  Metadata:
    encoder         : libebml v1.2.3 + libmatroska v1.3.0
    creation_time   : 2019-10-11T21:18:33.000000Z
  Duration: 00:01:31.09, start: 0.000000, bitrate: 1531 kb/s
  Stream #1:0(jpn): Video: h264 (Main), yuv420p(progressive), 1280x720 [SAR 1:1 DAR 16:9], 23.98 fps, 23.98 tbr, 1k tbn (default)
  Stream #1:1(jpn): Audio: aac (LC), 48000 Hz, stereo, fltp (default)
Stream mapping:
  Stream #0:0 (hevc) -> settb:default
  Stream #1:0 (h264) -> settb:default
  psnr:default -> Stream #0:0 (wrapped_avframe)
  Stream #0:1 -> #0:1 (aac (native) -> pcm_s16le (native))
[swscaler @ 0000028b83e15c00] No accelerated colorspace conversion found from yuv420p to bgr48le.
[swscaler @ 0000028b83f72f00] No accelerated colorspace conversion found from yuv420p to bgr48le.
[swscaler @ 0000028b840de040] No accelerated colorspace conversion found from yuv420p to bgr48le.
[swscaler @ 0000028b841f4d00] No accelerated colorspace conversion found from yuv420p to bgr48le.
[swscaler @ 0000028b843c1100] No accelerated colorspace conversion found from yuv420p to bgr48le.
[swscaler @ 0000028b844568c0] No accelerated colorspace conversion found from yuv420p to bgr48le.
[swscaler @ 0000028b845eb740] No accelerated colorspace conversion found from yuv420p to bgr48le.
[swscaler @ 0000028b846e7b40] No accelerated colorspace conversion found from yuv420p to bgr48le.
[swscaler @ 0000028b847c3040] No accelerated colorspace conversion found from yuv420p to bgr48le.
[swscaler @ 0000028b84827040] No accelerated colorspace conversion found from yuv420p to bgr48le.
[swscaler @ 0000028b84883040] No accelerated colorspace conversion found from yuv420p to bgr48le.
[swscaler @ 0000028b8490d040] No accelerated colorspace conversion found from yuv420p to bgr48le.
[swscaler @ 0000028b84977040] No accelerated colorspace conversion found from yuv420p to bgr48le.
[swscaler @ 0000028b849e5040] No accelerated colorspace conversion found from yuv420p to bgr48le.
[swscaler @ 0000028b84a63040] No accelerated colorspace conversion found from yuv420p to bgr48le.
[swscaler @ 0000028b84add040] No accelerated colorspace conversion found from yuv420p to bgr48le.
Output #0, null, to 'pipe:':
  Metadata:
    encoder         : Lavf61.7.100
  Stream #0:0: Video: wrapped_avframe, yuv420p10le(tv, bt709, progressive), 1280x720 [SAR 1:1 DAR 16:9], q=2-31, 200 kb/s, 23.98 fps, 23.98 tbn
      Metadata:
        encoder         : Lavc61.19.100 wrapped_avframe
  Stream #0:1(jpn): Audio: pcm_s16le, 48000 Hz, stereo, s16, 1536 kb/s (default)
      Metadata:
        _STATISTICS_TAGS: BPS DURATION NUMBER_OF_FRAMES NUMBER_OF_BYTES
        BPS             : 197517
        DURATION        : 00:01:31.029000000
        NUMBER_OF_FRAMES: 4268
        NUMBER_OF_BYTES : 2247480
        _STATISTICS_WRITING_APP: mkvpropedit v66.0.0 ('Josie') 64-bit
        _STATISTICS_WRITING_DATE_UTC: 2025-06-27 08:36:01
        encoder         : Lavc61.19.100 pcm_s16le
frame=   81 fps=0.0 q=-0.0 size=N/A time=00:00:03.37 bitrate=N/A speed=6.47x    frame=  173 fps=168 q=-0.0 size=N/A time=00:00:07.21 bitrate=N/A speed=   7x    frame=  268 fps=173 q=-0.0 size=N/A time=00:00:11.17 bitrate=N/A speed= 7.2x    frame=  363 fps=176 q=-0.0 size=N/A time=00:00:15.14 bitrate=N/A speed=7.34x    frame=  461 fps=178 q=-0.0 size=N/A time=00:00:19.22 bitrate=N/A speed=7.43x    frame=  556 fps=180 q=-0.0 size=N/A time=00:00:23.18 bitrate=N/A speed=7.49x    frame=  641 fps=177 q=-0.0 size=N/A time=00:00:26.73 bitrate=N/A speed=7.39x    frame=  743 fps=180 q=-0.0 size=N/A time=00:00:30.98 bitrate=N/A speed= 7.5x    frame=  846 fps=182 q=-0.0 size=N/A time=00:00:35.28 bitrate=N/A speed= 7.6x    frame=  942 fps=182 q=-0.0 size=N/A time=00:00:39.28 bitrate=N/A speed= 7.6x    frame= 1045 fps=184 q=-0.0 size=N/A time=00:00:43.58 bitrate=N/A speed=7.68x    frame= 1125 fps=182 q=-0.0 size=N/A time=00:00:46.92 bitrate=N/A speed=7.58x    frame= 1236 fps=184 q=-0.0 size=N/A time=00:00:51.55 bitrate=N/A speed=7.68x    frame= 1331 fps=184 q=-0.0 size=N/A time=00:00:55.51 bitrate=N/A speed=7.69x    frame= 1427 fps=184 q=-0.0 size=N/A time=00:00:59.51 bitrate=N/A speed=7.68x    frame= 1532 fps=186 q=-0.0 size=N/A time=00:01:03.89 bitrate=N/A speed=7.74x    frame= 1620 fps=185 q=-0.0 size=N/A time=00:01:07.56 bitrate=N/A speed=7.71x    frame= 1725 fps=186 q=-0.0 size=N/A time=00:01:11.94 bitrate=N/A speed=7.74x    frame= 1818 fps=185 q=-0.0 size=N/A time=00:01:15.82 bitrate=N/A speed=7.73x    frame= 1915 fps=186 q=-0.0 size=N/A time=00:01:19.87 bitrate=N/A speed=7.74x    frame= 2012 fps=186 q=-0.0 size=N/A time=00:01:23.91 bitrate=N/A speed=7.74x    frame= 2111 fps=186 q=-0.0 size=N/A time=00:01:28.04 bitrate=N/A speed=7.74x    [Parsed_psnr_10 @ 0000028bf791ba00] PSNR y:43.815015 u:48.179107 v:47.548249 average:44.793698 min:40.862351 max:56.049506
[out#0/null @ 0000028bf78e3e40] video:938KiB audio:17072KiB subtitle:0KiB other streams:0KiB global headers:0KiB muxing overhead: unknown
frame= 2184 fps=186 q=-0.0 Lsize=N/A time=00:01:31.05 bitrate=N/A speed=7.76x    
